<svg id="visual" viewBox="0 0 960 400" width="960" height="400" xmlns="http://www.w3.org/2000/svg" xmlns:xlink="http://www.w3.org/1999/xlink" version="1.1"><rect x="0" y="0" width="960" height="400" fill="#f7ecec"></rect><path d="M0 292L11.5 291.3C23 290.7 46 289.3 68.8 288.7C91.7 288 114.3 288 137.2 282.2C160 276.3 183 264.7 205.8 259C228.7 253.3 251.3 253.7 274.2 265.2C297 276.7 320 299.3 342.8 302.8C365.7 306.3 388.3 290.7 411.2 282.8C434 275 457 275 480 280.3C503 285.7 526 296.3 548.8 295.7C571.7 295 594.3 283 617.2 274C640 265 663 259 685.8 254.5C708.7 250 731.3 247 754.2 257C777 267 800 290 822.8 291.2C845.7 292.3 868.3 271.7 891.2 273.5C914 275.3 937 299.7 948.5 311.8L960 324L960 401L948.5 401C937 401 914 401 891.2 401C868.3 401 845.7 401 822.8 401C800 401 777 401 754.2 401C731.3 401 708.7 401 685.8 401C663 401 640 401 617.2 401C594.3 401 571.7 401 548.8 401C526 401 503 401 480 401C457 401 434 401 411.2 401C388.3 401 365.7 401 342.8 401C320 401 297 401 274.2 401C251.3 401 228.7 401 205.8 401C183 401 160 401 137.2 401C114.3 401 91.7 401 68.8 401C46 401 23 401 11.5 401L0 401Z" fill="#715df2"></path><path d="M0 327L11.5 328.3C23 329.7 46 332.3 68.8 333.2C91.7 334 114.3 333 137.2 327.8C160 322.7 183 313.3 205.8 304.5C228.7 295.7 251.3 287.3 274.2 281.7C297 276 320 273 342.8 276.5C365.7 280 388.3 290 411.2 299.8C434 309.7 457 319.3 480 322.3C503 325.3 526 321.7 548.8 321.8C571.7 322 594.3 326 617.2 328.2C640 330.3 663 330.7 685.8 323.2C708.7 315.7 731.3 300.3 754.2 289.7C777 279 800 273 822.8 269.3C845.7 265.7 868.3 264.3 891.2 265.7C914 267 937 271 948.5 273L960 275L960 401L948.5 401C937 401 914 401 891.2 401C868.3 401 845.7 401 822.8 401C800 401 777 401 754.2 401C731.3 401 708.7 401 685.8 401C663 401 640 401 617.2 401C594.3 401 571.7 401 548.8 401C526 401 503 401 480 401C457 401 434 401 411.2 401C388.3 401 365.7 401 342.8 401C320 401 297 401 274.2 401C251.3 401 228.7 401 205.8 401C183 401 160 401 137.2 401C114.3 401 91.7 401 68.8 401C46 401 23 401 11.5 401L0 401Z" fill="#6d52f6"></path><path d="M0 340L11.5 340.3C23 340.7 46 341.3 68.8 339.2C91.7 337 114.3 332 137.2 324.8C160 317.7 183 308.3 205.8 310C228.7 311.7 251.3 324.3 274.2 329.2C297 334 320 331 342.8 322.2C365.7 313.3 388.3 298.7 411.2 293.5C434 288.3 457 292.7 480 292.3C503 292 526 287 548.8 290.7C571.7 294.3 594.3 306.7 617.2 317.5C640 328.3 663 337.7 685.8 334.3C708.7 331 731.3 315 754.2 314.5C777 314 800 329 822.8 336.5C845.7 344 868.3 344 891.2 333.5C914 323 937 302 948.5 291.5L960 281L960 401L948.5 401C937 401 914 401 891.2 401C868.3 401 845.7 401 822.8 401C800 401 777 401 754.2 401C731.3 401 708.7 401 685.8 401C663 401 640 401 617.2 401C594.3 401 571.7 401 548.8 401C526 401 503 401 480 401C457 401 434 401 411.2 401C388.3 401 365.7 401 342.8 401C320 401 297 401 274.2 401C251.3 401 228.7 401 205.8 401C183 401 160 401 137.2 401C114.3 401 91.7 401 68.8 401C46 401 23 401 11.5 401L0 401Z" fill="#6a47f9"></path><path d="M0 361L11.5 360.7C23 360.3 46 359.7 68.8 353C91.7 346.3 114.3 333.7 137.2 329C160 324.3 183 327.7 205.8 334.3C228.7 341 251.3 351 274.2 355.2C297 359.3 320 357.7 342.8 349.8C365.7 342 388.3 328 411.2 327.2C434 326.3 457 338.7 480 337.7C503 336.7 526 322.3 548.8 315.3C571.7 308.3 594.3 308.7 617.2 310.8C640 313 663 317 685.8 319.2C708.7 321.3 731.3 321.7 754.2 319.7C777 317.7 800 313.3 822.8 318.7C845.7 324 868.3 339 891.2 346.2C914 353.3 937 352.7 948.5 352.3L960 352L960 401L948.5 401C937 401 914 401 891.2 401C868.3 401 845.7 401 822.8 401C800 401 777 401 754.2 401C731.3 401 708.7 401 685.8 401C663 401 640 401 617.2 401C594.3 401 571.7 401 548.8 401C526 401 503 401 480 401C457 401 434 401 411.2 401C388.3 401 365.7 401 342.8 401C320 401 297 401 274.2 401C251.3 401 228.7 401 205.8 401C183 401 160 401 137.2 401C114.3 401 91.7 401 68.8 401C46 401 23 401 11.5 401L0 401Z" fill="#6839fb"></path><path d="M0 348L11.5 348.8C23 349.7 46 351.3 68.8 354.5C91.7 357.7 114.3 362.3 137.2 359.2C160 356 183 345 205.8 344.7C228.7 344.3 251.3 354.7 274.2 355.3C297 356 320 347 342.8 347C365.7 347 388.3 356 411.2 357.7C434 359.3 457 353.7 480 354C503 354.3 526 360.7 548.8 362C571.7 363.3 594.3 359.7 617.2 359C640 358.3 663 360.7 685.8 363.8C708.7 367 731.3 371 754.2 369C777 367 800 359 822.8 352C845.7 345 868.3 339 891.2 339.3C914 339.7 937 346.3 948.5 349.7L960 353L960 401L948.5 401C937 401 914 401 891.2 401C868.3 401 845.7 401 822.8 401C800 401 777 401 754.2 401C731.3 401 708.7 401 685.8 401C663 401 640 401 617.2 401C594.3 401 571.7 401 548.8 401C526 401 503 401 480 401C457 401 434 401 411.2 401C388.3 401 365.7 401 342.8 401C320 401 297 401 274.2 401C251.3 401 228.7 401 205.8 401C183 401 160 401 137.2 401C114.3 401 91.7 401 68.8 401C46 401 23 401 11.5 401L0 401Z" fill="#6626fd"></path><path d="M0 383L11.5 383C23 383 46 383 68.8 381.2C91.7 379.3 114.3 375.7 137.2 376C160 376.3 183 380.7 205.8 382.5C228.7 384.3 251.3 383.7 274.2 383C297 382.3 320 381.7 342.8 382.3C365.7 383 388.3 385 411.2 382.2C434 379.3 457 371.7 480 366.5C503 361.3 526 358.7 548.8 359C571.7 359.3 594.3 362.7 617.2 367.5C640 372.3 663 378.7 685.8 377C708.7 375.3 731.3 365.7 754.2 362.2C777 358.7 800 361.3 822.8 362.5C845.7 363.7 868.3 363.3 891.2 364.8C914 366.3 937 369.7 948.5 371.3L960 373L960 401L948.5 401C937 401 914 401 891.2 401C868.3 401 845.7 401 822.8 401C800 401 777 401 754.2 401C731.3 401 708.7 401 685.8 401C663 401 640 401 617.2 401C594.3 401 571.7 401 548.8 401C526 401 503 401 480 401C457 401 434 401 411.2 401C388.3 401 365.7 401 342.8 401C320 401 297 401 274.2 401C251.3 401 228.7 401 205.8 401C183 401 160 401 137.2 401C114.3 401 91.7 401 68.8 401C46 401 23 401 11.5 401L0 401Z" fill="#6600ff"></path></svg>