<svg id="visual" viewBox="0 0 960 300" width="960" height="300" xmlns="http://www.w3.org/2000/svg" xmlns:xlink="http://www.w3.org/1999/xlink" version="1.1"><rect x="0" y="0" width="960" height="300" fill="#f7ecec"></rect><path d="M0 228L40 225.7C80 223.3 160 218.7 240 229.3C320 240 400 266 480 256.7C560 247.3 640 202.7 720 182.5C800 162.3 880 166.7 920 168.8L960 171L960 301L920 301C880 301 800 301 720 301C640 301 560 301 480 301C400 301 320 301 240 301C160 301 80 301 40 301L0 301Z" fill="#5D2EC1" stroke-linecap="round" stroke-linejoin="miter"></path></svg>