<svg id="visual" viewBox="0 0 450 900" width="450" height="900" xmlns="http://www.w3.org/2000/svg" xmlns:xlink="http://www.w3.org/1999/xlink" version="1.1"><rect x="0" y="0" width="450" height="900" fill="#f7ecec"></rect><path d="M0 705L8.3 687.2C16.7 669.3 33.3 633.7 50 623.3C66.7 613 83.3 628 100 625.2C116.7 622.3 133.3 601.7 150 594.7C166.7 587.7 183.3 594.3 200 591C216.7 587.7 233.3 574.3 250 565.3C266.7 556.3 283.3 551.7 300 570.3C316.7 589 333.3 631 350 654.3C366.7 677.7 383.3 682.3 400 679.7C416.7 677 433.3 667 441.7 662L450 657L450 901L441.7 901C433.3 901 416.7 901 400 901C383.3 901 366.7 901 350 901C333.3 901 316.7 901 300 901C283.3 901 266.7 901 250 901C233.3 901 216.7 901 200 901C183.3 901 166.7 901 150 901C133.3 901 116.7 901 100 901C83.3 901 66.7 901 50 901C33.3 901 16.7 901 8.3 901L0 901Z" fill="#715df2"></path><path d="M0 685L8.3 671.3C16.7 657.7 33.3 630.3 50 623.3C66.7 616.3 83.3 629.7 100 647.7C116.7 665.7 133.3 688.3 150 684.7C166.7 681 183.3 651 200 647.8C216.7 644.7 233.3 668.3 250 676.7C266.7 685 283.3 678 300 667.3C316.7 656.7 333.3 642.3 350 645.7C366.7 649 383.3 670 400 683.7C416.7 697.3 433.3 703.7 441.7 706.8L450 710L450 901L441.7 901C433.3 901 416.7 901 400 901C383.3 901 366.7 901 350 901C333.3 901 316.7 901 300 901C283.3 901 266.7 901 250 901C233.3 901 216.7 901 200 901C183.3 901 166.7 901 150 901C133.3 901 116.7 901 100 901C83.3 901 66.7 901 50 901C33.3 901 16.7 901 8.3 901L0 901Z" fill="#6e56f5"></path><path d="M0 719L8.3 712.7C16.7 706.3 33.3 693.7 50 680C66.7 666.3 83.3 651.7 100 649.8C116.7 648 133.3 659 150 676.8C166.7 694.7 183.3 719.3 200 733.3C216.7 747.3 233.3 750.7 250 732.3C266.7 714 283.3 674 300 673.5C316.7 673 333.3 712 350 712.2C366.7 712.3 383.3 673.7 400 670.8C416.7 668 433.3 701 441.7 717.5L450 734L450 901L441.7 901C433.3 901 416.7 901 400 901C383.3 901 366.7 901 350 901C333.3 901 316.7 901 300 901C283.3 901 266.7 901 250 901C233.3 901 216.7 901 200 901C183.3 901 166.7 901 150 901C133.3 901 116.7 901 100 901C83.3 901 66.7 901 50 901C33.3 901 16.7 901 8.3 901L0 901Z" fill="#6c4ef7"></path><path d="M0 765L8.3 763.7C16.7 762.3 33.3 759.7 50 748.3C66.7 737 83.3 717 100 707.7C116.7 698.3 133.3 699.7 150 693.7C166.7 687.7 183.3 674.3 200 686.3C216.7 698.3 233.3 735.7 250 750.3C266.7 765 283.3 757 300 757.5C316.7 758 333.3 767 350 759.3C366.7 751.7 383.3 727.3 400 716.3C416.7 705.3 433.3 707.7 441.7 708.8L450 710L450 901L441.7 901C433.3 901 416.7 901 400 901C383.3 901 366.7 901 350 901C333.3 901 316.7 901 300 901C283.3 901 266.7 901 250 901C233.3 901 216.7 901 200 901C183.3 901 166.7 901 150 901C133.3 901 116.7 901 100 901C83.3 901 66.7 901 50 901C33.3 901 16.7 901 8.3 901L0 901Z" fill="#6a45f9"></path><path d="M0 764L8.3 754.5C16.7 745 33.3 726 50 725.5C66.7 725 83.3 743 100 746C116.7 749 133.3 737 150 735C166.7 733 183.3 741 200 738.7C216.7 736.3 233.3 723.7 250 728.3C266.7 733 283.3 755 300 758.5C316.7 762 333.3 747 350 738.7C366.7 730.3 383.3 728.7 400 728.3C416.7 728 433.3 729 441.7 729.5L450 730L450 901L441.7 901C433.3 901 416.7 901 400 901C383.3 901 366.7 901 350 901C333.3 901 316.7 901 300 901C283.3 901 266.7 901 250 901C233.3 901 216.7 901 200 901C183.3 901 166.7 901 150 901C133.3 901 116.7 901 100 901C83.3 901 66.7 901 50 901C33.3 901 16.7 901 8.3 901L0 901Z" fill="#683bfb"></path><path d="M0 751L8.3 762C16.7 773 33.3 795 50 807.3C66.7 819.7 83.3 822.3 100 810.8C116.7 799.3 133.3 773.7 150 770.5C166.7 767.3 183.3 786.7 200 798.3C216.7 810 233.3 814 250 808.7C266.7 803.3 283.3 788.7 300 779.5C316.7 770.3 333.3 766.7 350 762C366.7 757.3 383.3 751.7 400 753.5C416.7 755.3 433.3 764.7 441.7 769.3L450 774L450 901L441.7 901C433.3 901 416.7 901 400 901C383.3 901 366.7 901 350 901C333.3 901 316.7 901 300 901C283.3 901 266.7 901 250 901C233.3 901 216.7 901 200 901C183.3 901 166.7 901 150 901C133.3 901 116.7 901 100 901C83.3 901 66.7 901 50 901C33.3 901 16.7 901 8.3 901L0 901Z" fill="#672ffd"></path><path d="M0 783L8.3 785.3C16.7 787.7 33.3 792.3 50 800.5C66.7 808.7 83.3 820.3 100 821.2C116.7 822 133.3 812 150 807.2C166.7 802.3 183.3 802.7 200 810.2C216.7 817.7 233.3 832.3 250 836.8C266.7 841.3 283.3 835.7 300 827.2C316.7 818.7 333.3 807.3 350 802.5C366.7 797.7 383.3 799.3 400 802.7C416.7 806 433.3 811 441.7 813.5L450 816L450 901L441.7 901C433.3 901 416.7 901 400 901C383.3 901 366.7 901 350 901C333.3 901 316.7 901 300 901C283.3 901 266.7 901 250 901C233.3 901 216.7 901 200 901C183.3 901 166.7 901 150 901C133.3 901 116.7 901 100 901C83.3 901 66.7 901 50 901C33.3 901 16.7 901 8.3 901L0 901Z" fill="#661ffe"></path><path d="M0 857L8.3 853.2C16.7 849.3 33.3 841.7 50 839.7C66.7 837.7 83.3 841.3 100 842C116.7 842.7 133.3 840.3 150 842.2C166.7 844 183.3 850 200 854.5C216.7 859 233.3 862 250 856.7C266.7 851.3 283.3 837.7 300 834C316.7 830.3 333.3 836.7 350 838.2C366.7 839.7 383.3 836.3 400 834C416.7 831.7 433.3 830.3 441.7 829.7L450 829L450 901L441.7 901C433.3 901 416.7 901 400 901C383.3 901 366.7 901 350 901C333.3 901 316.7 901 300 901C283.3 901 266.7 901 250 901C233.3 901 216.7 901 200 901C183.3 901 166.7 901 150 901C133.3 901 116.7 901 100 901C83.3 901 66.7 901 50 901C33.3 901 16.7 901 8.3 901L0 901Z" fill="#6600ff"></path></svg>