<svg id="visual" viewBox="0 0 4000 600" width="4000" height="600" xmlns="http://www.w3.org/2000/svg" xmlns:xlink="http://www.w3.org/1999/xlink" version="1.1"><rect x="0" y="0" width="4000" height="600" fill="#f7ecec"></rect><path d="M0 354L44.5 373.5C89 393 178 432 266.8 422.2C355.7 412.3 444.3 353.7 533.2 354.3C622 355 711 415 800 408.5C889 402 978 329 1066.8 297.8C1155.7 266.7 1244.3 277.3 1333.2 304.2C1422 331 1511 374 1600 391.7C1689 409.3 1778 401.7 1866.8 370.5C1955.7 339.3 2044.3 284.7 2133.2 287.7C2222 290.7 2311 351.3 2400 396.5C2489 441.7 2578 471.3 2666.8 477.5C2755.7 483.7 2844.3 466.3 2933.2 465.7C3022 465 3111 481 3200 444.7C3289 408.3 3378 319.7 3466.8 283.3C3555.7 247 3644.3 263 3733.2 249.7C3822 236.3 3911 193.7 3955.5 172.3L4000 151L4000 601L3955.5 601C3911 601 3822 601 3733.2 601C3644.3 601 3555.7 601 3466.8 601C3378 601 3289 601 3200 601C3111 601 3022 601 2933.2 601C2844.3 601 2755.7 601 2666.8 601C2578 601 2489 601 2400 601C2311 601 2222 601 2133.2 601C2044.3 601 1955.7 601 1866.8 601C1778 601 1689 601 1600 601C1511 601 1422 601 1333.2 601C1244.3 601 1155.7 601 1066.8 601C978 601 889 601 800 601C711 601 622 601 533.2 601C444.3 601 355.7 601 266.8 601C178 601 89 601 44.5 601L0 601Z" fill="#715df2"></path><path d="M0 467L44.5 472.7C89 478.3 178 489.7 266.8 466.5C355.7 443.3 444.3 385.7 533.2 353C622 320.3 711 312.7 800 326.3C889 340 978 375 1066.8 399C1155.7 423 1244.3 436 1333.2 424C1422 412 1511 375 1600 385.5C1689 396 1778 454 1866.8 465.8C1955.7 477.7 2044.3 443.3 2133.2 421.5C2222 399.7 2311 390.3 2400 368.3C2489 346.3 2578 311.7 2666.8 307.5C2755.7 303.3 2844.3 329.7 2933.2 356.8C3022 384 3111 412 3200 423.7C3289 435.3 3378 430.7 3466.8 395.3C3555.7 360 3644.3 294 3733.2 270C3822 246 3911 264 3955.5 273L4000 282L4000 601L3955.5 601C3911 601 3822 601 3733.2 601C3644.3 601 3555.7 601 3466.8 601C3378 601 3289 601 3200 601C3111 601 3022 601 2933.2 601C2844.3 601 2755.7 601 2666.8 601C2578 601 2489 601 2400 601C2311 601 2222 601 2133.2 601C2044.3 601 1955.7 601 1866.8 601C1778 601 1689 601 1600 601C1511 601 1422 601 1333.2 601C1244.3 601 1155.7 601 1066.8 601C978 601 889 601 800 601C711 601 622 601 533.2 601C444.3 601 355.7 601 266.8 601C178 601 89 601 44.5 601L0 601Z" fill="#6c50f6"></path><path d="M0 383L44.5 381C89 379 178 375 266.8 362.5C355.7 350 444.3 329 533.2 340.5C622 352 711 396 800 413.3C889 430.7 978 421.3 1066.8 406.7C1155.7 392 1244.3 372 1333.2 362.3C1422 352.7 1511 353.3 1600 370.3C1689 387.3 1778 420.7 1866.8 416.8C1955.7 413 2044.3 372 2133.2 359.2C2222 346.3 2311 361.7 2400 375.3C2489 389 2578 401 2666.8 418.3C2755.7 435.7 2844.3 458.3 2933.2 453.3C3022 448.3 3111 415.7 3200 396.5C3289 377.3 3378 371.7 3466.8 374.7C3555.7 377.7 3644.3 389.3 3733.2 407.7C3822 426 3911 451 3955.5 463.5L4000 476L4000 601L3955.5 601C3911 601 3822 601 3733.2 601C3644.3 601 3555.7 601 3466.8 601C3378 601 3289 601 3200 601C3111 601 3022 601 2933.2 601C2844.3 601 2755.7 601 2666.8 601C2578 601 2489 601 2400 601C2311 601 2222 601 2133.2 601C2044.3 601 1955.7 601 1866.8 601C1778 601 1689 601 1600 601C1511 601 1422 601 1333.2 601C1244.3 601 1155.7 601 1066.8 601C978 601 889 601 800 601C711 601 622 601 533.2 601C444.3 601 355.7 601 266.8 601C178 601 89 601 44.5 601L0 601Z" fill="#6940fa"></path><path d="M0 461L44.5 450.8C89 440.7 178 420.3 266.8 430.5C355.7 440.7 444.3 481.3 533.2 486.7C622 492 711 462 800 468.5C889 475 978 518 1066.8 532C1155.7 546 1244.3 531 1333.2 522.2C1422 513.3 1511 510.7 1600 498C1689 485.3 1778 462.7 1866.8 468.5C1955.7 474.3 2044.3 508.7 2133.2 525.7C2222 542.7 2311 542.3 2400 535.5C2489 528.7 2578 515.3 2666.8 509.5C2755.7 503.7 2844.3 505.3 2933.2 486.2C3022 467 3111 427 3200 411.3C3289 395.7 3378 404.3 3466.8 422.2C3555.7 440 3644.3 467 3733.2 463.8C3822 460.7 3911 427.3 3955.5 410.7L4000 394L4000 601L3955.5 601C3911 601 3822 601 3733.2 601C3644.3 601 3555.7 601 3466.8 601C3378 601 3289 601 3200 601C3111 601 3022 601 2933.2 601C2844.3 601 2755.7 601 2666.8 601C2578 601 2489 601 2400 601C2311 601 2222 601 2133.2 601C2044.3 601 1955.7 601 1866.8 601C1778 601 1689 601 1600 601C1511 601 1422 601 1333.2 601C1244.3 601 1155.7 601 1066.8 601C978 601 889 601 800 601C711 601 622 601 533.2 601C444.3 601 355.7 601 266.8 601C178 601 89 601 44.5 601L0 601Z" fill="#672bfd"></path><path d="M0 550L44.5 548.7C89 547.3 178 544.7 266.8 543.3C355.7 542 444.3 542 533.2 531.5C622 521 711 500 800 502.2C889 504.3 978 529.7 1066.8 545.7C1155.7 561.7 1244.3 568.3 1333.2 572.3C1422 576.3 1511 577.7 1600 580C1689 582.3 1778 585.7 1866.8 565.3C1955.7 545 2044.3 501 2133.2 495.3C2222 489.7 2311 522.3 2400 539.7C2489 557 2578 559 2666.8 563.7C2755.7 568.3 2844.3 575.7 2933.2 579.7C3022 583.7 3111 584.3 3200 585.3C3289 586.3 3378 587.7 3466.8 566.7C3555.7 545.7 3644.3 502.3 3733.2 487.8C3822 473.3 3911 487.7 3955.5 494.8L4000 502L4000 601L3955.5 601C3911 601 3822 601 3733.2 601C3644.3 601 3555.7 601 3466.8 601C3378 601 3289 601 3200 601C3111 601 3022 601 2933.2 601C2844.3 601 2755.7 601 2666.8 601C2578 601 2489 601 2400 601C2311 601 2222 601 2133.2 601C2044.3 601 1955.7 601 1866.8 601C1778 601 1689 601 1600 601C1511 601 1422 601 1333.2 601C1244.3 601 1155.7 601 1066.8 601C978 601 889 601 800 601C711 601 622 601 533.2 601C444.3 601 355.7 601 266.8 601C178 601 89 601 44.5 601L0 601Z" fill="#6600ff"></path></svg>