<svg id="visual" viewBox="0 0 960 300" width="960" height="300" xmlns="http://www.w3.org/2000/svg" xmlns:xlink="http://www.w3.org/1999/xlink" version="1.1"><rect x="0" y="0" width="960" height="300" fill="#f7ecec"></rect><path d="M0 219L11.5 218.5C23 218 46 217 68.8 216.5C91.7 216 114.3 216 137.2 211.5C160 207 183 198 205.8 193.7C228.7 189.3 251.3 189.7 274.2 198.3C297 207 320 224 342.8 226.7C365.7 229.3 388.3 217.7 411.2 211.8C434 206 457 206 480 210C503 214 526 222 548.8 221.5C571.7 221 594.3 212 617.2 205.3C640 198.7 663 194.3 685.8 191C708.7 187.7 731.3 185.3 754.2 192.8C777 200.3 800 217.7 822.8 218.5C845.7 219.3 868.3 203.7 891.2 205C914 206.3 937 224.7 948.5 233.8L960 243L960 301L948.5 301C937 301 914 301 891.2 301C868.3 301 845.7 301 822.8 301C800 301 777 301 754.2 301C731.3 301 708.7 301 685.8 301C663 301 640 301 617.2 301C594.3 301 571.7 301 548.8 301C526 301 503 301 480 301C457 301 434 301 411.2 301C388.3 301 365.7 301 342.8 301C320 301 297 301 274.2 301C251.3 301 228.7 301 205.8 301C183 301 160 301 137.2 301C114.3 301 91.7 301 68.8 301C46 301 23 301 11.5 301L0 301Z" fill="#715df2"></path><path d="M0 245L11.5 246C23 247 46 249 68.8 249.7C91.7 250.3 114.3 249.7 137.2 245.8C160 242 183 235 205.8 228.3C228.7 221.7 251.3 215.3 274.2 211C297 206.7 320 204.3 342.8 207C365.7 209.7 388.3 217.3 411.2 224.8C434 232.3 457 239.7 480 241.8C503 244 526 241 548.8 241C571.7 241 594.3 244 617.2 245.7C640 247.3 663 247.7 685.8 242C708.7 236.3 731.3 224.7 754.2 216.7C777 208.7 800 204.3 822.8 201.7C845.7 199 868.3 198 891.2 199C914 200 937 203 948.5 204.5L960 206L960 301L948.5 301C937 301 914 301 891.2 301C868.3 301 845.7 301 822.8 301C800 301 777 301 754.2 301C731.3 301 708.7 301 685.8 301C663 301 640 301 617.2 301C594.3 301 571.7 301 548.8 301C526 301 503 301 480 301C457 301 434 301 411.2 301C388.3 301 365.7 301 342.8 301C320 301 297 301 274.2 301C251.3 301 228.7 301 205.8 301C183 301 160 301 137.2 301C114.3 301 91.7 301 68.8 301C46 301 23 301 11.5 301L0 301Z" fill="#6d52f6"></path><path d="M0 255L11.5 255.3C23 255.7 46 256.3 68.8 254.7C91.7 253 114.3 249 137.2 243.5C160 238 183 231 205.8 232.3C228.7 233.7 251.3 243.3 274.2 247C297 250.7 320 248.3 342.8 241.5C365.7 234.7 388.3 223.3 411.2 219.3C434 215.3 457 218.7 480 218.7C503 218.7 526 215.3 548.8 218.2C571.7 221 594.3 230 617.2 238C640 246 663 253 685.8 250.5C708.7 248 731.3 236 754.2 235.7C777 235.3 800 246.7 822.8 252.2C845.7 257.7 868.3 257.3 891.2 249.3C914 241.3 937 225.7 948.5 217.8L960 210L960 301L948.5 301C937 301 914 301 891.2 301C868.3 301 845.7 301 822.8 301C800 301 777 301 754.2 301C731.3 301 708.7 301 685.8 301C663 301 640 301 617.2 301C594.3 301 571.7 301 548.8 301C526 301 503 301 480 301C457 301 434 301 411.2 301C388.3 301 365.7 301 342.8 301C320 301 297 301 274.2 301C251.3 301 228.7 301 205.8 301C183 301 160 301 137.2 301C114.3 301 91.7 301 68.8 301C46 301 23 301 11.5 301L0 301Z" fill="#6a47f9"></path><path d="M0 270L11.5 269.8C23 269.7 46 269.3 68.8 264.5C91.7 259.7 114.3 250.3 137.2 246.8C160 243.3 183 245.7 205.8 250.7C228.7 255.7 251.3 263.3 274.2 266.5C297 269.7 320 268.3 342.8 262.3C365.7 256.3 388.3 245.7 411.2 245C434 244.3 457 253.7 480 253C503 252.3 526 241.7 548.8 236.5C571.7 231.3 594.3 231.7 617.2 233.3C640 235 663 238 685.8 239.5C708.7 241 731.3 241 754.2 239.5C777 238 800 235 822.8 239C845.7 243 868.3 254 891.2 259.3C914 264.7 937 264.3 948.5 264.2L960 264L960 301L948.5 301C937 301 914 301 891.2 301C868.3 301 845.7 301 822.8 301C800 301 777 301 754.2 301C731.3 301 708.7 301 685.8 301C663 301 640 301 617.2 301C594.3 301 571.7 301 548.8 301C526 301 503 301 480 301C457 301 434 301 411.2 301C388.3 301 365.7 301 342.8 301C320 301 297 301 274.2 301C251.3 301 228.7 301 205.8 301C183 301 160 301 137.2 301C114.3 301 91.7 301 68.8 301C46 301 23 301 11.5 301L0 301Z" fill="#6839fb"></path><path d="M0 260L11.5 260.8C23 261.7 46 263.3 68.8 265.8C91.7 268.3 114.3 271.7 137.2 269.2C160 266.7 183 258.3 205.8 258C228.7 257.7 251.3 265.3 274.2 265.8C297 266.3 320 259.7 342.8 259.8C365.7 260 388.3 267 411.2 268.3C434 269.7 457 265.3 480 265.5C503 265.7 526 270.3 548.8 271.3C571.7 272.3 594.3 269.7 617.2 269.2C640 268.7 663 270.3 685.8 272.7C708.7 275 731.3 278 754.2 276.5C777 275 800 269 822.8 263.7C845.7 258.3 868.3 253.7 891.2 253.8C914 254 937 259 948.5 261.5L960 264L960 301L948.5 301C937 301 914 301 891.2 301C868.3 301 845.7 301 822.8 301C800 301 777 301 754.2 301C731.3 301 708.7 301 685.8 301C663 301 640 301 617.2 301C594.3 301 571.7 301 548.8 301C526 301 503 301 480 301C457 301 434 301 411.2 301C388.3 301 365.7 301 342.8 301C320 301 297 301 274.2 301C251.3 301 228.7 301 205.8 301C183 301 160 301 137.2 301C114.3 301 91.7 301 68.8 301C46 301 23 301 11.5 301L0 301Z" fill="#6626fd"></path><path d="M0 287L11.5 287C23 287 46 287 68.8 285.5C91.7 284 114.3 281 137.2 281.3C160 281.7 183 285.3 205.8 286.8C228.7 288.3 251.3 287.7 274.2 287C297 286.3 320 285.7 342.8 286.2C365.7 286.7 388.3 288.3 411.2 286.3C434 284.3 457 278.7 480 274.8C503 271 526 269 548.8 269.2C571.7 269.3 594.3 271.7 617.2 275.2C640 278.7 663 283.3 685.8 282.2C708.7 281 731.3 274 754.2 271.5C777 269 800 271 822.8 271.8C845.7 272.7 868.3 272.3 891.2 273.5C914 274.7 937 277.3 948.5 278.7L960 280L960 301L948.5 301C937 301 914 301 891.2 301C868.3 301 845.7 301 822.8 301C800 301 777 301 754.2 301C731.3 301 708.7 301 685.8 301C663 301 640 301 617.2 301C594.3 301 571.7 301 548.8 301C526 301 503 301 480 301C457 301 434 301 411.2 301C388.3 301 365.7 301 342.8 301C320 301 297 301 274.2 301C251.3 301 228.7 301 205.8 301C183 301 160 301 137.2 301C114.3 301 91.7 301 68.8 301C46 301 23 301 11.5 301L0 301Z" fill="#6600ff"></path></svg>