<svg id="visual" viewBox="0 0 4000 600" width="4000" height="600" xmlns="http://www.w3.org/2000/svg" xmlns:xlink="http://www.w3.org/1999/xlink" version="1.1"><rect x="0" y="0" width="4000" height="600" fill="#001220"></rect><path d="M0 294L95.2 286C190.3 278 380.7 262 571.2 285.5C761.7 309 952.3 372 1142.8 362C1333.3 352 1523.7 269 1714.2 235.5C1904.7 202 2095.3 218 2285.8 253.7C2476.3 289.3 2666.7 344.7 2857.2 348C3047.7 351.3 3238.3 302.7 3428.8 307.7C3619.3 312.7 3809.7 371.3 3904.8 400.7L4000 430L4000 601L3904.8 601C3809.7 601 3619.3 601 3428.8 601C3238.3 601 3047.7 601 2857.2 601C2666.7 601 2476.3 601 2285.8 601C2095.3 601 1904.7 601 1714.2 601C1523.7 601 1333.3 601 1142.8 601C952.3 601 761.7 601 571.2 601C380.7 601 190.3 601 95.2 601L0 601Z" fill="#715df2"></path><path d="M0 545L95.2 510.5C190.3 476 380.7 407 571.2 408.2C761.7 409.3 952.3 480.7 1142.8 484C1333.3 487.3 1523.7 422.7 1714.2 400.5C1904.7 378.3 2095.3 398.7 2285.8 415.8C2476.3 433 2666.7 447 2857.2 470.5C3047.7 494 3238.3 527 3428.8 521.5C3619.3 516 3809.7 472 3904.8 450L4000 428L4000 601L3904.8 601C3809.7 601 3619.3 601 3428.8 601C3238.3 601 3047.7 601 2857.2 601C2666.7 601 2476.3 601 2285.8 601C2095.3 601 1904.7 601 1714.2 601C1523.7 601 1333.3 601 1142.8 601C952.3 601 761.7 601 571.2 601C380.7 601 190.3 601 95.2 601L0 601Z" fill="#6b4bf8"></path><path d="M0 327L95.2 344.2C190.3 361.3 380.7 395.7 571.2 421.5C761.7 447.3 952.3 464.7 1142.8 484.7C1333.3 504.7 1523.7 527.3 1714.2 531.5C1904.7 535.7 2095.3 521.3 2285.8 484C2476.3 446.7 2666.7 386.3 2857.2 396.7C3047.7 407 3238.3 488 3428.8 505.8C3619.3 523.7 3809.7 478.3 3904.8 455.7L4000 433L4000 601L3904.8 601C3809.7 601 3619.3 601 3428.8 601C3238.3 601 3047.7 601 2857.2 601C2666.7 601 2476.3 601 2285.8 601C2095.3 601 1904.7 601 1714.2 601C1523.7 601 1333.3 601 1142.8 601C952.3 601 761.7 601 571.2 601C380.7 601 190.3 601 95.2 601L0 601Z" fill="#6733fc"></path><path d="M0 483L95.2 498C190.3 513 380.7 543 571.2 544.8C761.7 546.7 952.3 520.3 1142.8 508C1333.3 495.7 1523.7 497.3 1714.2 494.8C1904.7 492.3 2095.3 485.7 2285.8 501C2476.3 516.3 2666.7 553.7 2857.2 565.5C3047.7 577.3 3238.3 563.7 3428.8 554.3C3619.3 545 3809.7 540 3904.8 537.5L4000 535L4000 601L3904.8 601C3809.7 601 3619.3 601 3428.8 601C3238.3 601 3047.7 601 2857.2 601C2666.7 601 2476.3 601 2285.8 601C2095.3 601 1904.7 601 1714.2 601C1523.7 601 1333.3 601 1142.8 601C952.3 601 761.7 601 571.2 601C380.7 601 190.3 601 95.2 601L0 601Z" fill="#6600ff"></path></svg>